<?xml version="1.0" standalone="no"?>
<!DOCTYPE svg PUBLIC "-//W3C//DTD SVG 20010904//EN"
 "http://www.w3.org/TR/2001/REC-SVG-20010904/DTD/svg10.dtd">
<svg version="1.0" xmlns="http://www.w3.org/2000/svg"
 width="300.000000pt" height="157.000000pt" viewBox="0 0 300.000000 157.000000"
 preserveAspectRatio="xMidYMid meet">
<metadata>
Created by potrace 1.10, written by Peter Selinger 2001-2011
</metadata>
<g transform="translate(0.000000,157.000000) scale(0.100000,-0.100000)"
fill="#000000" stroke="none">
<path d="M1375 1223 c-190 -16 -345 -78 -345 -137 0 -23 -42 -89 -73 -115 -26
-21 -21 -84 13 -161 34 -77 37 -117 19 -264 -12 -91 -11 -95 11 -126 54 -76
164 -91 375 -50 100 19 145 34 269 92 202 94 261 136 295 213 10 22 33 55 52
74 53 53 69 82 69 129 0 40 -5 49 -61 107 -34 35 -72 86 -84 113 -12 27 -39
64 -59 84 -36 35 -37 35 -148 41 -112 7 -256 7 -333 0z m411 -29 c17 -2 40
-14 51 -27 28 -30 102 -164 95 -171 -3 -3 -15 -6 -26 -6 -18 0 -19 2 -6 11 12
8 12 10 -4 7 -11 -2 -21 -9 -24 -17 -4 -11 5 -13 42 -9 55 7 90 -15 113 -70
19 -45 5 -87 -47 -136 -22 -21 -52 -62 -66 -92 -17 -36 -40 -64 -73 -88 -63
-46 -335 -176 -370 -176 -14 0 -54 -9 -89 -20 -139 -44 -294 -36 -348 18 l-26
27 8 100 c12 142 10 215 -10 253 -18 35 -16 38 16 21 11 -6 22 -8 25 -5 4 3
-8 11 -25 17 -19 6 -32 18 -32 27 0 15 -2 15 -11 2 -8 -12 -9 -9 -5 12 18 82
46 108 119 108 29 0 46 4 42 10 -10 16 -98 -1 -123 -24 -13 -11 -30 -34 -38
-51 -8 -16 -12 -22 -9 -12 3 10 5 25 5 32 0 8 18 35 40 60 22 25 40 56 40 69
0 27 30 56 90 87 40 20 58 23 155 21 61 -1 135 3 165 7 43 7 29 8 -65 5 -109
-3 -114 -2 -55 7 36 5 103 8 150 6 53 -3 76 -2 60 4 -25 8 175 3 236 -7z"/>
<path d="M1621 1176 c26 -7 78 -31 117 -54 93 -56 105 -53 18 3 -68 44 -122
65 -161 64 -11 0 1 -6 26 -13z"/>
<path d="M1181 1148 c-12 -4 -21 -9 -21 -10 0 -6 249 -1 331 7 104 9 170 -7
250 -61 46 -31 50 -33 30 -10 -66 72 -187 98 -366 78 -49 -5 -116 -6 -147 -3
-31 4 -66 3 -77 -1z"/>
<path d="M1492 1124 c1 -5 -4 -20 -11 -33 -9 -17 -10 -26 -2 -34 8 -8 11 -6
11 9 0 10 7 27 15 38 12 16 22 18 76 12 73 -9 106 -20 138 -49 16 -15 22 -17
19 -7 -8 29 -96 63 -175 68 -40 3 -73 1 -71 -4z"/>
<path d="M1203 1109 c-18 -5 -39 -19 -47 -31 -23 -32 -12 -33 19 -2 25 25 31
26 101 22 41 -3 71 -2 67 3 -13 13 -106 19 -140 8z"/>
<path d="M1514 1031 c-51 -23 -63 -49 -35 -72 20 -16 24 -16 73 3 43 16 66 19
121 14 54 -5 67 -3 67 8 0 59 -137 87 -226 47z m73 -18 c3 -8 -68 -43 -90 -43
-17 0 10 34 37 46 34 14 48 14 53 -3z"/>
<path d="M1190 1019 c-58 -24 -38 -46 45 -48 65 -2 85 -11 85 -36 0 -25 -48
-68 -108 -99 -19 -10 -31 -20 -28 -23 3 -3 18 2 33 12 18 12 28 14 31 6 2 -6
8 -8 13 -5 5 3 25 -8 45 -25 29 -26 38 -29 54 -21 26 14 26 33 0 25 -22 -7
-45 7 -61 36 -7 14 -3 21 22 36 24 14 30 23 27 45 -3 20 1 29 19 37 25 11 23
34 -1 25 -7 -3 -28 4 -47 15 -43 25 -97 33 -129 20z"/>
<path d="M1763 981 c0 -14 2 -20 4 -13 3 6 13 12 24 12 27 0 24 17 -5 22 -20
4 -23 1 -23 -21z"/>
<path d="M1620 956 c0 -46 111 -61 189 -25 50 22 89 19 116 -11 14 -15 16 -30
12 -67 l-7 -48 20 24 c27 32 25 65 -7 101 -38 42 -93 50 -156 21 -58 -26 -91
-27 -133 0 -28 17 -34 18 -34 5z"/>
<path d="M1979 953 c14 -28 14 -109 0 -134 -6 -11 -20 -24 -32 -29 -14 -6 -16
-9 -6 -9 8 -1 25 8 37 19 18 17 22 32 22 78 0 38 -6 65 -16 78 -15 18 -15 18
-5 -3z"/>
<path d="M1028 949 c-33 -18 -19 -109 16 -109 5 0 2 8 -7 18 -24 26 -21 68 5
86 25 18 13 21 -14 5z"/>
<path d="M1052 928 c-21 -21 -13 -27 20 -17 38 11 68 3 68 -17 0 -25 74 -13
84 13 5 12 1 14 -19 9 -15 -4 -37 0 -55 9 -35 18 -81 20 -98 3z"/>
<path d="M1840 916 c0 -29 -257 -121 -409 -146 -159 -27 -311 17 -311 90 0 44
-12 43 -33 -3 -42 -89 -21 -257 36 -286 61 -30 283 -42 398 -21 83 15 189 72
240 128 55 61 103 124 105 137 0 5 2 16 2 24 2 9 10 11 27 7 34 -9 32 5 -5 32
-16 13 -30 29 -30 37 0 8 -4 15 -10 15 -5 0 -10 -6 -10 -14z m10 -60 c0 -15
-55 -66 -70 -66 -5 0 -15 -3 -24 -6 -12 -5 -16 0 -16 17 0 17 11 31 38 46 43
26 72 29 72 9z m-130 -44 c0 -22 -36 -52 -81 -67 -55 -19 -54 -19 -63 11 -5
18 2 23 61 41 82 25 83 25 83 15z m-584 -44 c-3 -13 -6 -29 -6 -35 0 -7 -4
-13 -10 -13 -11 0 -13 30 -4 54 9 25 27 19 20 -6z m63 -22 c0 -6 -4 -19 -8
-30 -7 -17 -8 -17 -24 -2 -17 17 -22 38 -11 48 9 9 44 -3 43 -16z m359 -32
c-3 -2 -33 -7 -67 -10 -62 -7 -63 -7 -59 17 2 20 11 25 58 34 53 10 55 10 64
-13 4 -13 6 -25 4 -28z m236 44 c-15 -27 -47 -57 -55 -52 -14 8 -10 23 11 44
22 22 56 28 44 8z m-515 -18 c20 0 27 -5 27 -20 0 -17 -7 -20 -43 -20 -40 0
-43 2 -43 26 0 20 4 25 16 20 9 -3 28 -6 43 -6z m131 -20 c0 -17 -7 -20 -44
-20 -39 0 -44 2 -39 20 4 16 14 20 44 20 32 0 39 -3 39 -20z m300 -9 c0 -11 5
-23 11 -26 8 -6 -16 -25 -88 -69 -9 -5 -19 5 -30 28 -9 20 -15 37 -12 39 7 5
104 45 112 46 4 1 7 -8 7 -18z m-140 -46 c0 -9 7 -27 16 -40 15 -24 15 -24
-37 -39 -68 -21 -89 -20 -89 2 0 9 -3 26 -6 37 -4 17 3 23 48 36 69 22 68 22
68 4z m-401 -51 c14 -33 11 -37 -20 -25 -13 5 -18 10 -11 10 9 1 11 8 7 21 -9
29 10 24 24 -6z m68 -15 c10 -25 9 -29 -7 -29 -10 0 -20 8 -23 18 -2 9 -8 25
-12 34 -5 13 -2 15 12 12 11 -3 24 -19 30 -35z m195 6 c4 -38 -4 -45 -53 -45
-16 0 -29 5 -29 13 0 6 -3 22 -6 34 -5 19 -1 22 28 26 18 2 38 5 44 5 7 1 14
-14 16 -33z m-114 -8 c8 -16 11 -31 8 -34 -10 -11 -54 7 -60 24 -3 10 -9 24
-12 31 -5 10 2 13 22 10 20 -2 33 -12 42 -31z"/>
<path d="M1482 883 c-19 -7 -4 -23 24 -23 26 0 32 -18 12 -38 -17 -17 -2 -28
17 -12 8 7 15 24 15 38 0 20 3 23 12 14 15 -15 92 -16 82 -1 -4 6 -20 8 -38 5
-18 -4 -36 -3 -40 1 -3 4 -13 8 -20 9 -7 1 -22 4 -32 7 -11 3 -25 3 -32 0z"/>
<path d="M1428 843 c-31 -8 -19 -21 23 -25 35 -3 59 5 47 17 -7 7 -54 13 -70
8z"/>
<path d="M1655 564 c-157 -70 -148 -68 -317 -68 -147 -1 -158 0 -187 22 -34
25 -43 16 -11 -13 24 -21 141 -35 250 -30 70 4 72 4 30 -6 -25 -6 -95 -11
-155 -12 -126 -2 -194 18 -196 57 -1 18 -2 18 -6 3 -22 -86 240 -102 486 -30
99 28 220 77 247 99 24 20 14 16 -103 -35 -50 -22 -104 -43 -120 -46 l-28 -5
25 12 c14 7 61 29 105 50 102 48 86 49 -20 2z"/>
<path d="M1303 513 c26 -2 67 -2 90 0 23 2 2 3 -48 3 -49 0 -68 -1 -42 -3z"/>
</g>
</svg>
